<?xml version="1.0" encoding="UTF-8" standalone="no"?><!DOCTYPE svg PUBLIC "-//W3C//DTD SVG 1.1//EN" "http://www.w3.org/Graphics/SVG/1.1/DTD/svg11.dtd"><svg width="119.66407" height="40" viewBox="0 0 120 40" version="1.1" xmlns="http://www.w3.org/2000/svg" xmlns:xlink="http://www.w3.org/1999/xlink" xml:space="preserve" xmlns:serif="http://www.serif.com/" style="fill-rule:evenodd;clip-rule:evenodd;stroke-linejoin:round;stroke-miterlimit:1.41421;"><g><g><path d="M110.135,0l-100.6,0c-0.367,0 -0.729,0 -1.095,0.002c-0.306,0.002 -0.61,0.008 -0.919,0.013c-0.671,0.008 -1.341,0.067 -2.004,0.176c-0.661,0.113 -1.302,0.324 -1.901,0.627c-0.597,0.306 -1.144,0.704 -1.618,1.179c-0.478,0.474 -0.876,1.021 -1.179,1.621c-0.304,0.599 -0.514,1.241 -0.625,1.903c-0.111,0.662 -0.171,1.332 -0.179,2.002c-0.009,0.307 -0.01,0.615 -0.015,0.921l0,23.115c0.005,0.31 0.006,0.611 0.015,0.921c0.008,0.671 0.068,1.341 0.179,2.002c0.11,0.663 0.321,1.306 0.625,1.905c0.303,0.598 0.701,1.143 1.179,1.614c0.473,0.477 1.019,0.875 1.618,1.179c0.599,0.304 1.239,0.517 1.901,0.63c0.663,0.109 1.333,0.168 2.004,0.177c0.309,0.007 0.613,0.011 0.919,0.011c0.366,0.002 0.728,0.002 1.095,0.002l100.6,0c0.359,0 0.724,0 1.084,-0.002c0.304,0 0.617,-0.004 0.922,-0.011c0.67,-0.008 1.338,-0.067 2,-0.177c0.663,-0.114 1.307,-0.327 1.908,-0.63c0.598,-0.304 1.145,-0.702 1.617,-1.179c0.476,-0.473 0.875,-1.018 1.182,-1.614c0.302,-0.6 0.51,-1.242 0.619,-1.905c0.111,-0.661 0.173,-1.331 0.185,-2.002c0.004,-0.31 0.004,-0.611 0.004,-0.921c0.008,-0.364 0.008,-0.725 0.008,-1.094l0,-20.929c0,-0.366 0,-0.729 -0.008,-1.092c0,-0.306 0,-0.614 -0.004,-0.921c-0.012,-0.671 -0.074,-1.34 -0.185,-2.002c-0.109,-0.662 -0.318,-1.304 -0.619,-1.903c-0.618,-1.203 -1.597,-2.182 -2.799,-2.8c-0.601,-0.302 -1.245,-0.514 -1.908,-0.627c-0.661,-0.11 -1.33,-0.169 -2,-0.176c-0.305,-0.005 -0.618,-0.011 -0.922,-0.013c-0.36,-0.002 -0.725,-0.002 -1.084,-0.002Z" style="fill-rule:nonzero;"/><path d="M8.445,39.125c-0.305,0 -0.602,-0.004 -0.904,-0.011c-0.627,-0.008 -1.251,-0.062 -1.87,-0.163c-0.576,-0.099 -1.134,-0.284 -1.656,-0.548c-0.517,-0.261 -0.989,-0.605 -1.397,-1.016c-0.414,-0.407 -0.759,-0.879 -1.021,-1.397c-0.264,-0.521 -0.448,-1.08 -0.543,-1.657c-0.103,-0.62 -0.158,-1.247 -0.166,-1.875c-0.007,-0.211 -0.015,-0.913 -0.015,-0.913l0,-23.101c0,0 0.009,-0.691 0.015,-0.894c0.007,-0.628 0.063,-1.253 0.165,-1.872c0.096,-0.579 0.279,-1.139 0.544,-1.662c0.26,-0.518 0.603,-0.99 1.015,-1.398c0.411,-0.412 0.884,-0.757 1.402,-1.023c0.521,-0.263 1.078,-0.446 1.653,-0.544c0.621,-0.101 1.248,-0.156 1.876,-0.164l0.902,-0.012l102.769,0l0.913,0.013c0.623,0.007 1.244,0.061 1.858,0.162c0.581,0.099 1.145,0.284 1.671,0.548c1.038,0.535 1.883,1.381 2.415,2.42c0.261,0.52 0.441,1.076 0.535,1.649c0.104,0.624 0.162,1.255 0.174,1.887c0.003,0.283 0.003,0.588 0.003,0.89c0.008,0.375 0.008,0.732 0.008,1.092l0,20.929c0,0.363 0,0.718 -0.008,1.075c0,0.325 0,0.623 -0.004,0.93c-0.011,0.621 -0.069,1.24 -0.171,1.853c-0.093,0.581 -0.275,1.145 -0.54,1.67c-0.263,0.513 -0.606,0.98 -1.015,1.386c-0.409,0.414 -0.881,0.759 -1.4,1.022c-0.525,0.266 -1.087,0.452 -1.668,0.55c-0.618,0.101 -1.243,0.156 -1.869,0.163c-0.293,0.007 -0.599,0.011 -0.897,0.011l-1.084,0.002l-101.69,-0.002Z" style="fill:#fff;fill-rule:nonzero;"/></g><path d="M70.616,14.433l0,-2.904l-2.424,0l0,0.464l1.944,0c0.005,0.304 -0.035,0.584 -0.12,0.84c-0.085,0.256 -0.213,0.477 -0.384,0.664c-0.171,0.187 -0.38,0.332 -0.628,0.436c-0.248,0.104 -0.529,0.156 -0.844,0.156c-0.379,0 -0.704,-0.072 -0.976,-0.216c-0.272,-0.144 -0.495,-0.335 -0.668,-0.572c-0.173,-0.237 -0.301,-0.507 -0.384,-0.808c-0.083,-0.301 -0.124,-0.607 -0.124,-0.916c0,-0.315 0.041,-0.621 0.124,-0.92c0.083,-0.299 0.211,-0.567 0.384,-0.804c0.173,-0.237 0.396,-0.428 0.668,-0.572c0.272,-0.144 0.597,-0.216 0.976,-0.216c0.272,0 0.517,0.044 0.736,0.132c0.219,0.088 0.407,0.201 0.564,0.34c0.157,0.139 0.283,0.292 0.376,0.46c0.093,0.168 0.148,0.335 0.164,0.5l0.544,0c-0.053,-0.315 -0.152,-0.589 -0.296,-0.824c-0.144,-0.235 -0.32,-0.432 -0.528,-0.592c-0.208,-0.16 -0.445,-0.28 -0.712,-0.36c-0.267,-0.08 -0.549,-0.12 -0.848,-0.12c-0.448,0 -0.841,0.081 -1.18,0.244c-0.339,0.163 -0.62,0.381 -0.844,0.656c-0.224,0.275 -0.392,0.591 -0.504,0.948c-0.112,0.357 -0.168,0.733 -0.168,1.128c0,0.395 0.056,0.771 0.168,1.128c0.112,0.357 0.28,0.672 0.504,0.944c0.224,0.272 0.505,0.489 0.844,0.652c0.339,0.163 0.732,0.244 1.18,0.244c0.208,0 0.409,-0.021 0.604,-0.064c0.195,-0.043 0.377,-0.111 0.548,-0.204c0.171,-0.093 0.327,-0.213 0.468,-0.36c0.141,-0.147 0.26,-0.321 0.356,-0.524l0.016,0l0.072,1.04l0.392,0Z" style="fill-rule:nonzero;"/><path d="M74.536,12.081l-2.672,0c0.021,-0.187 0.065,-0.369 0.132,-0.548c0.067,-0.179 0.156,-0.336 0.268,-0.472c0.112,-0.136 0.248,-0.245 0.408,-0.328c0.16,-0.083 0.344,-0.124 0.552,-0.124c0.203,0 0.384,0.041 0.544,0.124c0.16,0.083 0.296,0.192 0.408,0.328c0.112,0.136 0.199,0.292 0.26,0.468c0.061,0.176 0.095,0.36 0.1,0.552Zm-2.672,0.424l3.176,0c0.011,-0.288 -0.016,-0.572 -0.08,-0.852c-0.064,-0.28 -0.169,-0.528 -0.316,-0.744c-0.147,-0.216 -0.337,-0.391 -0.572,-0.524c-0.235,-0.133 -0.517,-0.2 -0.848,-0.2c-0.325,0 -0.607,0.063 -0.844,0.188c-0.237,0.125 -0.431,0.291 -0.58,0.496c-0.149,0.205 -0.26,0.439 -0.332,0.7c-0.072,0.261 -0.108,0.528 -0.108,0.8c0,0.293 0.036,0.572 0.108,0.836c0.072,0.264 0.183,0.496 0.332,0.696c0.149,0.2 0.343,0.357 0.58,0.472c0.237,0.115 0.519,0.172 0.844,0.172c0.523,0 0.927,-0.128 1.212,-0.384c0.285,-0.256 0.481,-0.619 0.588,-1.088l-0.504,0c-0.08,0.32 -0.224,0.576 -0.432,0.768c-0.208,0.192 -0.496,0.288 -0.864,0.288c-0.24,0 -0.445,-0.051 -0.616,-0.152c-0.171,-0.101 -0.312,-0.229 -0.424,-0.384c-0.112,-0.155 -0.193,-0.329 -0.244,-0.524c-0.051,-0.195 -0.076,-0.383 -0.076,-0.564Z" style="fill-rule:nonzero;"/><path d="M76.52,10.305l0,-1.24l-0.504,0l0,1.24l-0.72,0l0,0.424l0.72,0l0,2.824c-0.005,0.352 0.059,0.593 0.192,0.724c0.133,0.131 0.368,0.196 0.704,0.196c0.075,0 0.149,-0.003 0.224,-0.008c0.075,-0.005 0.149,-0.008 0.224,-0.008l0,-0.424c-0.144,0.016 -0.288,0.024 -0.432,0.024c-0.181,-0.011 -0.295,-0.063 -0.34,-0.156c-0.045,-0.093 -0.068,-0.223 -0.068,-0.388l0,-2.784l0.84,0l0,-0.424l-0.84,0Z" style="fill-rule:nonzero;"/><path d="M38.042,23.993l0,-5.256l4.212,0c0.852,0 1.542,0.216 2.07,0.648c0.528,0.432 0.792,1.092 0.792,1.98c0,0.888 -0.264,1.548 -0.792,1.98c-0.528,0.432 -1.218,0.648 -2.07,0.648l-4.212,0Zm-1.224,-6.3l0,12.852l1.224,0l0,-5.508l4.482,0c0.576,0 1.098,-0.081 1.566,-0.243c0.468,-0.162 0.87,-0.402 1.206,-0.72c0.336,-0.318 0.594,-0.705 0.774,-1.161c0.18,-0.456 0.27,-0.972 0.27,-1.548c0,-0.576 -0.09,-1.092 -0.27,-1.548c-0.18,-0.456 -0.438,-0.843 -0.774,-1.161c-0.336,-0.318 -0.738,-0.558 -1.206,-0.72c-0.468,-0.162 -0.99,-0.243 -1.566,-0.243l-5.706,0Z" style="fill-rule:nonzero;"/><path d="M47.942,21.257l0,9.288l1.134,0l0,-4.95c0,-0.492 0.084,-0.945 0.252,-1.359c0.168,-0.414 0.405,-0.771 0.711,-1.071c0.306,-0.3 0.669,-0.531 1.089,-0.693c0.42,-0.162 0.888,-0.231 1.404,-0.207l0,-1.134c-0.84,-0.036 -1.563,0.15 -2.169,0.558c-0.606,0.408 -1.053,0.99 -1.341,1.746l-0.036,0l0,-2.178l-1.044,0Z" style="fill-rule:nonzero;"/><path d="M59.966,25.253l-6.012,0c0.048,-0.42 0.147,-0.831 0.297,-1.233c0.15,-0.402 0.351,-0.756 0.603,-1.062c0.252,-0.306 0.558,-0.552 0.918,-0.738c0.36,-0.186 0.774,-0.279 1.242,-0.279c0.456,0 0.864,0.093 1.224,0.279c0.36,0.186 0.666,0.432 0.918,0.738c0.252,0.306 0.447,0.657 0.585,1.053c0.138,0.396 0.213,0.81 0.225,1.242Zm-6.012,0.954l7.146,0c0.024,-0.648 -0.036,-1.287 -0.18,-1.917c-0.144,-0.63 -0.381,-1.188 -0.711,-1.674c-0.33,-0.486 -0.759,-0.879 -1.287,-1.179c-0.528,-0.3 -1.164,-0.45 -1.908,-0.45c-0.732,0 -1.365,0.141 -1.899,0.423c-0.534,0.282 -0.969,0.654 -1.305,1.116c-0.336,0.462 -0.585,0.987 -0.747,1.575c-0.162,0.588 -0.243,1.188 -0.243,1.8c0,0.66 0.081,1.287 0.243,1.881c0.162,0.594 0.411,1.116 0.747,1.566c0.336,0.45 0.771,0.804 1.305,1.062c0.534,0.258 1.167,0.387 1.899,0.387c1.176,0 2.085,-0.288 2.727,-0.864c0.642,-0.576 1.083,-1.392 1.323,-2.448l-1.134,0c-0.18,0.72 -0.504,1.296 -0.972,1.728c-0.468,0.432 -1.116,0.648 -1.944,0.648c-0.54,0 -1.002,-0.114 -1.386,-0.342c-0.384,-0.228 -0.702,-0.516 -0.954,-0.864c-0.252,-0.348 -0.435,-0.741 -0.549,-1.179c-0.114,-0.438 -0.171,-0.861 -0.171,-1.269Z" style="fill-rule:nonzero;"/><path d="M68.192,23.975l1.134,0c-0.024,-0.504 -0.126,-0.942 -0.306,-1.314c-0.18,-0.372 -0.423,-0.684 -0.729,-0.936c-0.306,-0.252 -0.66,-0.438 -1.062,-0.558c-0.402,-0.12 -0.837,-0.18 -1.305,-0.18c-0.408,0 -0.819,0.048 -1.233,0.144c-0.414,0.096 -0.789,0.246 -1.125,0.45c-0.336,0.204 -0.609,0.474 -0.819,0.81c-0.21,0.336 -0.315,0.738 -0.315,1.206c0,0.396 0.066,0.729 0.198,0.999c0.132,0.27 0.315,0.498 0.549,0.684c0.234,0.186 0.507,0.342 0.819,0.468c0.312,0.126 0.654,0.237 1.026,0.333l1.458,0.324c0.252,0.06 0.501,0.132 0.747,0.216c0.246,0.084 0.465,0.189 0.657,0.315c0.192,0.126 0.345,0.282 0.459,0.468c0.114,0.186 0.171,0.417 0.171,0.693c0,0.324 -0.081,0.597 -0.243,0.819c-0.162,0.222 -0.369,0.405 -0.621,0.549c-0.252,0.144 -0.525,0.246 -0.819,0.306c-0.294,0.06 -0.579,0.09 -0.855,0.09c-0.756,0 -1.389,-0.195 -1.899,-0.585c-0.51,-0.39 -0.789,-0.969 -0.837,-1.737l-1.134,0c0.096,1.14 0.483,1.968 1.161,2.484c0.678,0.516 1.563,0.774 2.655,0.774c0.432,0 0.87,-0.048 1.314,-0.144c0.444,-0.096 0.843,-0.255 1.197,-0.477c0.354,-0.222 0.645,-0.51 0.873,-0.864c0.228,-0.354 0.342,-0.783 0.342,-1.287c0,-0.408 -0.078,-0.762 -0.234,-1.062c-0.156,-0.3 -0.357,-0.552 -0.603,-0.756c-0.246,-0.204 -0.528,-0.369 -0.846,-0.495c-0.318,-0.126 -0.639,-0.213 -0.963,-0.261l-1.512,-0.342c-0.192,-0.048 -0.402,-0.111 -0.63,-0.189c-0.228,-0.078 -0.438,-0.177 -0.63,-0.297c-0.192,-0.12 -0.351,-0.267 -0.477,-0.441c-0.126,-0.174 -0.189,-0.387 -0.189,-0.639c0,-0.3 0.066,-0.552 0.198,-0.756c0.132,-0.204 0.306,-0.369 0.522,-0.495c0.216,-0.126 0.453,-0.216 0.711,-0.27c0.258,-0.054 0.513,-0.081 0.765,-0.081c0.324,0 0.63,0.039 0.918,0.117c0.288,0.078 0.543,0.201 0.765,0.369c0.222,0.168 0.399,0.381 0.531,0.639c0.132,0.258 0.204,0.561 0.216,0.909Z" style="fill-rule:nonzero;"/><path d="M76.85,23.975l1.134,0c-0.024,-0.504 -0.126,-0.942 -0.306,-1.314c-0.18,-0.372 -0.423,-0.684 -0.729,-0.936c-0.306,-0.252 -0.66,-0.438 -1.062,-0.558c-0.402,-0.12 -0.837,-0.18 -1.305,-0.18c-0.408,0 -0.819,0.048 -1.233,0.144c-0.414,0.096 -0.789,0.246 -1.125,0.45c-0.336,0.204 -0.609,0.474 -0.819,0.81c-0.21,0.336 -0.315,0.738 -0.315,1.206c0,0.396 0.066,0.729 0.198,0.999c0.132,0.27 0.315,0.498 0.549,0.684c0.234,0.186 0.507,0.342 0.819,0.468c0.312,0.126 0.654,0.237 1.026,0.333l1.458,0.324c0.252,0.06 0.501,0.132 0.747,0.216c0.246,0.084 0.465,0.189 0.657,0.315c0.192,0.126 0.345,0.282 0.459,0.468c0.114,0.186 0.171,0.417 0.171,0.693c0,0.324 -0.081,0.597 -0.243,0.819c-0.162,0.222 -0.369,0.405 -0.621,0.549c-0.252,0.144 -0.525,0.246 -0.819,0.306c-0.294,0.06 -0.579,0.09 -0.855,0.09c-0.756,0 -1.389,-0.195 -1.899,-0.585c-0.51,-0.39 -0.789,-0.969 -0.837,-1.737l-1.134,0c0.096,1.14 0.483,1.968 1.161,2.484c0.678,0.516 1.563,0.774 2.655,0.774c0.432,0 0.87,-0.048 1.314,-0.144c0.444,-0.096 0.843,-0.255 1.197,-0.477c0.354,-0.222 0.645,-0.51 0.873,-0.864c0.228,-0.354 0.342,-0.783 0.342,-1.287c0,-0.408 -0.078,-0.762 -0.234,-1.062c-0.156,-0.3 -0.357,-0.552 -0.603,-0.756c-0.246,-0.204 -0.528,-0.369 -0.846,-0.495c-0.318,-0.126 -0.639,-0.213 -0.963,-0.261l-1.512,-0.342c-0.192,-0.048 -0.402,-0.111 -0.63,-0.189c-0.228,-0.078 -0.438,-0.177 -0.63,-0.297c-0.192,-0.12 -0.351,-0.267 -0.477,-0.441c-0.126,-0.174 -0.189,-0.387 -0.189,-0.639c0,-0.3 0.066,-0.552 0.198,-0.756c0.132,-0.204 0.306,-0.369 0.522,-0.495c0.216,-0.126 0.453,-0.216 0.711,-0.27c0.258,-0.054 0.513,-0.081 0.765,-0.081c0.324,0 0.63,0.039 0.918,0.117c0.288,0.078 0.543,0.201 0.765,0.369c0.222,0.168 0.399,0.381 0.531,0.639c0.132,0.258 0.204,0.561 0.216,0.909Z" style="fill-rule:nonzero;"/><path d="M85.166,17.693l0,12.852l1.224,0l0,-4.41l2.466,-2.286l5.346,6.696l1.584,0l-6.012,-7.542l5.742,-5.31l-1.656,0l-7.47,6.912l0,-6.912l-1.224,0Z" style="fill-rule:nonzero;"/><path d="M96.632,17.693l0,1.818l1.134,0l0,-1.818l-1.134,0Zm0,3.564l0,9.288l1.134,0l0,-9.288l-1.134,0Z" style="fill-rule:nonzero;"/><path d="M101.744,21.257l0,-2.79l-1.134,0l0,2.79l-1.62,0l0,0.954l1.62,0l0,6.354c-0.012,0.792 0.132,1.335 0.432,1.629c0.3,0.294 0.828,0.441 1.584,0.441c0.168,0 0.336,-0.006 0.504,-0.018c0.168,-0.012 0.336,-0.018 0.504,-0.018l0,-0.954c-0.324,0.036 -0.648,0.054 -0.972,0.054c-0.408,-0.024 -0.663,-0.141 -0.765,-0.351c-0.102,-0.21 -0.153,-0.501 -0.153,-0.873l0,-6.264l1.89,0l0,-0.954l-1.89,0Z" style="fill-rule:nonzero;"/><path d="M28.275,30.291l-7.603,-3.113l-11.114,-13.87l1.194,-2.416l0.497,-0.427l1.365,-1.137l0.511,-0.412l2.544,-0.71l11.114,13.87l1.492,8.215Zm-1.634,-4.775l-0.569,-2.843c-0.227,-0.151 -0.421,-0.227 -0.582,-0.227c-0.484,0 -0.867,0.331 -1.152,0.995c-0.208,-0.067 -0.364,-0.1 -0.469,-0.1c-0.331,0 -0.651,0.147 -0.959,0.441c-0.308,0.293 -0.462,0.601 -0.462,0.924c0,0.075 0.005,0.175 0.014,0.298c-0.786,0.171 -1.179,0.531 -1.179,1.08c0,0.123 0.033,0.289 0.099,0.498l2.615,1.122c0.37,-1.364 1.251,-2.094 2.644,-2.188Zm-2.445,-2.786c0.322,-0.512 0.706,-0.767 1.152,-0.767c0.056,0 0.132,0.004 0.227,0.014l-10.346,-12.919l-1.649,0.412l10.616,13.26Zm-0.696,0.199l-10.432,-13.032l-1.364,1.137l10.446,13.032c0.265,-0.616 0.715,-0.995 1.35,-1.137Zm-1.677,1.777l-10.616,-13.246l-0.739,1.563l10.346,12.919c0.085,-0.597 0.422,-1.009 1.009,-1.236Z" style="fill-rule:nonzero;"/></g></svg>